# xmcd
#
# Track frame offsets:
#	150
#	13238
#	22058
#	35924
#	41978
#	52379
#	58435
#	70176
#	81134
#	87004
#	95551
#	105843
#	116517
#	133269
#	145058
#	155024
#	176678
#	185762
#	194456
#	204470
#	212207
#	222542
#	233113
#
# Disc length: 3264 seconds
#
# Revision: 0
# Processed by: cddbd v1.4PL0 Copyright (c) Steve Scherf et al.
# Submitted via: EasyCDDAExtractor 4.6.9.1
#
DISCID=6c0cbe17
DTITLE=George Jones - The Louisiana Hayride Archives
DYEAR=1900
DGENRE=Country
TTITLE0=Accidently On Purpose
TTITLE1=Big Harlan Taylor
TTITLE2=The Color Of The Blues
TTITLE3=D-I-V-O-R-C-E
TTITLE4=Don't Stop The Music
TTITLE5=Fire On The Mountain
TTITLE6=Fraulien
TTITLE7=The Honky Tonk Downstairs
TTITLE8=If I Could Hear My Mother Pray
TTITLE9=I'm Ragged But I'm Right
TTITLE10=Nothing Can Stop My Loving You
TTITLE11=The Race Is On
TTITLE12=Say It's Not You
TTITLE13=She Thinks I Still Care
TTITLE14=That Won't Stop My Loving You
TTITLE15=Things Have Gone To Pieces
TTITLE16=Too Much Water
TTITLE17=Treatin' Your Man A Little Better
TTITLE18=Walk Through This World With Me
TTITLE19=When The Grass Grows Over Me
TTITLE20=White Lightning
TTITLE21=Why Baby Why
TTITLE22=You Gotta' Be My Baby
EXTD=
EXTT0=
EXTT1=
EXTT2=
EXTT3=
EXTT4=
EXTT5=
EXTT6=
EXTT7=
EXTT8=
EXTT9=
EXTT10=
EXTT11=
EXTT12=
EXTT13=
EXTT14=
EXTT15=
EXTT16=
EXTT17=
EXTT18=
EXTT19=
EXTT20=
EXTT21=
EXTT22=
PLAYORDER=
